<svg xmlns="http://www.w3.org/2000/svg" viewBox="0 -91.00 2241.00 439.00" width="2241" height="439">
<g fill="#0F766E"><path d="M0 0 C4.24527 3.67213 4.24527 3.67213 6.11328 5.77734 C6.11328 6.43734 6.11328 7.09734 6.11328 7.77734 C6.70238 8.01582 7.29148 8.2543 7.89844 8.5 C15.21724 12.7209 19.18217 23.22945 22.11328 30.77734 C22.43426 31.57012 22.75523 32.36289 23.08594 33.17969 C28.93318 50.39506 25.18307 69.88336 17.61328 85.83984 C5.34146 109.95167 -18.28061 124.83474 -43.30884 133.02441 C-65.02645 139.72143 -86.49506 141.95444 -109.07422 141.83984 C-110.80664 141.83482 -112.53906 141.83026 -114.27148 141.82617 C-118.4766 141.81526 -122.68164 141.79806 -126.88672 141.77734 C-121.71983 155.59588 -114.1594 166.4105 -100.69922 173.02734 C-87.49221 178.73106 -72.85982 181.29984 -58.88672 176.77734 C-49.9245 173.19036 -43.50501 168.93117 -36.54297 162.21484 C-27.51801 153.93312 -18.81312 150.24614 -6.6875 150.53125 C5.1242 151.5691 12.91198 157.61382 20.41797 166.42969 C26.06682 174.25218 26.84863 184.81259 25.61328 194.15234 C22.32456 209.24177 11.94149 220.3153 -0.63672 228.52734 C-33.71035 249.11455 -75.54199 253.33367 -113.23047 245.15381 C-133.96769 240.26303 -152.57054 231.49015 -168.88672 217.77734 C-169.88316 216.9575 -170.87961 216.13766 -171.90625 215.29297 C-196.92696 193.64989 -212.32537 160.87598 -214.75781 127.99121 C-216.43336 99.21498 -211.91938 72.12076 -197.88672 46.77734 C-197.33242 45.7332 -196.77812 44.68906 -196.20703 43.61328 C-184.72079 22.78417 -167.04622 4.67481 -145.88672 -6.22266 C-144.76008 -6.84012 -143.63344 -7.45758 -142.47266 -8.09375 C-100.1858 -30.8101 -38.90258 -29.95341 0 0 Z M-112.19922 52.02734 C-123.08433 63.50084 -130.88672 78.63435 -130.88672 94.77734 C-105.77191 95.29204 -77.98336 90.86508 -58.19922 74.33984 C-52.51376 68.8152 -49.77067 63.54273 -49.44922 55.58984 C-49.73268 49.68288 -51.3797 46.25011 -55.63672 42.08984 C-74.08727 28.96157 -97.37717 37.60589 -112.19922 52.02734 Z " transform="translate(226.88671875,35.22265625)"/><path d="M0 0 C0.33 0.495 0.33 0.495 2 3 C1.31035 3.08637 0.6207 3.17273 -0.08984 3.26172 C-9.57589 4.68007 -17.14884 8.14884 -24 15 C-30.59118 24.27823 -32.91286 32.65444 -32 44 C-30.469 52.94153 -26.29598 59.52584 -19.3125 65.25 C-11.37423 70.77359 -2.62358 73.32222 7 72 C16.94934 69.67114 24.91669 64.74377 30.4375 56.0625 C34.29509 49.00802 35.30241 41.93053 36 34 C46.1549 38.21649 51.02869 53.44289 55 63 C69.17375 98.99905 68.36224 139.0768 53.00879 174.42603 C38.22464 207.50366 12.37775 233.12632 -21.45776 246.31958 C-57.14484 259.62128 -98.9408 257.95398 -133.5625 242.16016 C-144.55969 236.91128 -154.08634 230.56591 -163.19531 222.48047 C-164.97739 220.9044 -166.79757 219.36966 -168.66406 217.89453 C-192.22563 198.78524 -205.54919 164.38905 -209 135 C-209.29111 129.76978 -209.34195 124.54935 -209.3125 119.3125 C-209.31001 118.60524 -209.30753 117.89798 -209.30496 117.16928 C-209.24709 106.52677 -208.91543 96.30475 -206 86 C-205.88713 85.59548 -205.88713 85.59548 -205.31592 83.54834 C-198.72202 60.64614 -187.48235 41.22505 -171 24 C-170.63326 23.59588 -170.63326 23.59588 -168.77734 21.55078 C-127.67582 -22.15819 -51.00967 -29.42624 0 0 Z M-112 74 C-125.47836 90.99218 -127.0247 112.71853 -124.71582 133.56592 C-123.14398 143.24351 -119.1804 151.73413 -114 160 C-113.52691 160.77086 -113.05383 161.54172 -112.56641 162.33594 C-108.74029 167.99382 -103.72788 171.4069 -98 175 C-97.66227 175.23783 -97.66227 175.23783 -95.95312 176.44141 C-86.24048 182.74709 -72.75771 184.13401 -61.55859 182.0625 C-45.47998 177.26186 -33.71356 167.90206 -25.41797 153.19531 C-16.45641 134.51413 -15.63302 112.48878 -21.75 92.8125 C-27.1029 78.0479 -35.74372 66.15661 -50 59 C-72.49764 49.21716 -95.65659 56.61106 -112 74 Z " transform="translate(711,29)"/><path d="M0 0 C9.03535 8.3659 14.98162 17.96167 16.0625 30.32422 C16.47693 43.13279 13.44335 52.31836 4.75 61.75 C-1.84547 68.7269 -10.79355 73.03064 -20.35547 73.95312 C-30.37248 74.17865 -38.47148 70.99328 -46.25 64.75 C-48.00656 63.0595 -49.68694 61.31309 -51.37109 59.55078 C-60.9233 50.39575 -71.12433 46.37482 -84.25391 46.53516 C-98.33773 47.54508 -109.63732 53.61946 -119.25 63.75 C-131.68217 78.50414 -135.71496 97.84413 -134.25 116.75 C-131.844 134.09764 -126.14564 150.31243 -112.25 161.75 C-101.2157 169.60614 -88.8572 173.3103 -75.35547 171.32422 C-65.26026 169.21187 -58.75105 164.15246 -51.375 157.1875 C-41.68877 148.2074 -31.41513 145.23567 -18.55469 145.48438 C-8.00281 145.9505 -1.39184 151.31998 5.75 158.75 C8.35462 161.78006 10.3553 164.58189 11.9375 168.25 C12.09928 168.61609 12.09928 168.61609 12.91797 170.46875 C16.7338 180.93093 15.21616 191.78064 10.75 201.75 C8.98787 204.96449 6.99192 207.85351 4.75 210.75 C4.27176 211.40355 3.79352 212.05711 3.30078 212.73047 C-12.7275 232.9576 -41.76948 241.94227 -66.32812 245.15234 C-104.29857 248.85802 -142.49441 240.14959 -172.25 215.75 C-184.03025 205.90961 -193.51648 194.97236 -201.25 181.75 C-201.63575 181.09757 -202.0215 180.44515 -202.41895 179.77295 C-219.70209 150.15183 -224.8209 112.06201 -216.25 78.75 C-216.08903 78.07969 -215.92806 77.40937 -215.76221 76.71875 C-207.24057 41.61713 -184.10413 11.55722 -153.70703 -7.50781 C-109.6545 -34.189 -39.93569 -35.42343 0 0 Z " transform="translate(481.25,38.25)"/></g><g fill="#96D562"><path d="M0 0 C5.06704 6.28028 9.19534 13.03057 9.41406 21.25781 C8.34583 31.23471 5.09665 41.59857 -2.6875 48.4375 C-11.91006 55.21121 -20.1435 58.68046 -31.6875 57.4375 C-41.70942 55.03769 -49.72431 49.88535 -55.6875 41.4375 C-60.37116 32.37082 -62.3044 23.70382 -60.03906 13.52344 C-56.39969 2.48088 -49.64127 -4.74923 -39.6875 -10.5625 C-36.5625 -11.9375 -36.5625 -11.9375 -33.6875 -12.5625 C-33.09969 -12.70688 -33.09969 -12.70688 -30.125 -13.4375 C-18.82101 -14.62853 -7.56772 -7.83151 0 0 Z " transform="translate(738.6875,44.5625)"/></g>
<g fill="#FFFFFF" transform="translate(825.00,-111.00) scale(0.25)"><path d="M0 0 C0.63116 0.27215 1.26231 0.54431 1.9126 0.82471 C10.19393 4.48888 17.16931 9.05806 24 15 C25.03125 15.78375 26.0625 16.5675 27.125 17.375 C62.67706 49.83558 67.70374 111.74759 70.06616 156.57687 C70.10983 157.40041 70.15349 158.22396 70.19848 159.07246 C71.08984 176.23106 71.28732 193.35453 71.25694 210.53282 C71.25173 214.78514 71.25843 219.03744 71.26342 223.28976 C71.27056 230.69846 71.27048 238.10712 71.26533 245.51582 C71.25768 256.5346 71.26167 267.55335 71.26774 278.57212 C71.27822 298.26921 71.27739 317.96628 71.27159 337.66337 C71.26653 354.91048 71.26525 372.15758 71.26763 389.40469 C71.26771 389.9791 71.26771 389.9791 71.26809 392.88598 C71.26872 397.55086 71.26935 402.21573 71.27001 406.88061 C71.27612 450.56099 71.27061 494.24136 71.25982 537.92174 C71.25034 576.61011 71.25117 615.29845 71.26074 653.98682 C71.27149 697.57165 71.27568 741.15648 71.26952 784.74132 C71.26888 789.40151 71.26825 794.0617 71.26763 798.72189 C71.26747 799.86913 71.26732 801.01637 71.26715 802.19838 C71.26489 819.41216 71.26751 836.62594 71.27259 853.83973 C71.27835 873.45228 71.2768 893.06482 71.26603 912.67738 C71.26073 922.66055 71.25843 932.64371 71.26533 942.62688 C71.31007 1011.91679 71.31007 1011.91679 70.09711 1042.63156 C70.07729 1043.13436 70.07729 1043.13436 69.97699 1045.67881 C66.64268 1126.99416 54.84769 1211.30619 21 1286 C20.56865 1286.95616 20.13729 1287.91232 19.69287 1288.89746 C11.27443 1307.39406 1.72606 1325.37073 -10 1342 C-10.37302 1342.53609 -10.74604 1343.07218 -11.13037 1343.62451 C-19.34954 1355.4339 -27.96314 1366.94435 -37.73438 1377.52344 C-39.61146 1379.57529 -41.43375 1381.65661 -43.25 1383.76172 C-47.08581 1388.15516 -51.1245 1392.31669 -55.25 1396.4375 C-55.99725 1397.18395 -56.74451 1397.9304 -57.5144 1398.69946 C-62.29071 1403.4232 -67.13125 1407.8414 -72.42578 1411.98047 C-75.19591 1414.1537 -77.83704 1416.447 -80.5 1418.75 C-88.56118 1425.46247 -97.23501 1431.25277 -106 1437 C-106.8055 1437.52997 -107.61101 1438.05993 -108.44092 1438.60596 C-175.82238 1482.56569 -256.26113 1503.05318 -450.85547 1520.20312 C-451.85178 1520.20595 -452.84809 1520.20878 -453.8746 1520.21169 C-459.16323 1520.22654 -464.45183 1520.23585 -469.74048 1520.24023 C-474.00098 1520.24458 -478.26128 1520.25836 -482.52173 1520.28125 C-561.51962 1520.69659 -640.48796 1512.07379 -716 1488 C-717.09248 1487.65501 -718.18496 1487.31003 -719.31055 1486.95459 C-773.0756 1469.8738 -825.81473 1446.11352 -871 1412 C-871.6405 1411.51789 -872.28101 1411.03578 -872.94092 1410.53906 C-880.41558 1404.87981 -887.47969 1398.90556 -894.32031 1392.49609 C-896.5911 1390.38088 -898.89529 1388.33279 -901.25 1386.3125 C-908.05814 1380.39238 -914.19833 1373.89899 -920 1367 C-920.4444 1366.48002 -920.88881 1365.96005 -921.34668 1365.42432 C-949.90545 1331.89351 -970.21078 1292.85408 -970.25 1248.0625 C-970.25067 1247.37092 -970.25135 1246.67934 -970.25204 1245.9668 C-970.20374 1214.79073 -960.01844 1188.12148 -938.25 1165.8125 C-916.26421 1144.11316 -886.60825 1132.36606 -855.83176 1132.54352 C-855.14478 1132.54978 -854.4578 1132.55605 -853.75 1132.5625 C-853.03555 1132.56554 -852.32109 1132.56858 -851.58499 1132.57172 C-813.12659 1132.81264 -781.93472 1149.62944 -754.6875 1176.0625 C-751.01561 1179.8433 -747.71755 1183.9057 -744.41797 1188.01172 C-741.82518 1191.21605 -739.17199 1194.36182 -736.5 1197.5 C-733.14516 1201.44619 -729.82777 1205.41643 -726.5625 1209.4375 C-722.6053 1214.30082 -718.53706 1219.0595 -714.44165 1223.80615 C-711.39704 1227.34311 -708.42351 1230.924 -705.5 1234.5625 C-700.27608 1240.97325 -694.71313 1247.0255 -689 1253 C-688.38173 1253.64695 -687.76347 1254.2939 -687.12646 1254.96045 C-678.82726 1263.58657 -670.37493 1271.5931 -660.73877 1278.70557 C-658.9704 1280.02203 -657.23262 1281.37235 -655.49609 1282.73047 C-589.75318 1333.47405 -491.5926 1332.39648 -410.86279 1322.48438 C-358.30284 1315.61395 -309.84151 1298.99192 -271 1262 C-270.28199 1261.33484 -269.56398 1260.66969 -268.82422 1259.98438 C-238.58901 1231.14277 -225.30706 1186.40628 -216.8125 1146.8125 C-216.57443 1145.72872 -216.33635 1144.64494 -216.09106 1143.52832 C-211.82572 1122.80708 -210.48629 1101.58669 -209.4375 1080.5 C-209.37685 1079.32978 -209.31621 1078.15957 -209.25372 1076.95389 C-207.65506 1045.98725 -206.78639 1014.99608 -206 984 C-205.96971 982.81833 -205.93941 981.63667 -205.9082 980.41919 C-205.29223 956.27837 -204.80001 932.14977 -205 908 C-205.52207 908.70383 -206.04414 909.40766 -206.58203 910.13281 C-214.59199 920.87823 -222.72681 931.48707 -231.5 941.625 C-231.7425 941.90525 -231.7425 941.90525 -232.96973 943.32349 C-241.67017 953.28082 -250.70462 962.87195 -260.07153 972.2019 C-261.70057 973.82552 -263.32411 975.4545 -264.94727 977.08398 C-270.4578 982.59871 -276.02576 987.98399 -282 993 C-282.6322 993.53891 -283.26441 994.07782 -283.91577 994.63306 C-304.75699 1012.31928 -327.21518 1027.55965 -351 1041 C-351.35643 1041.20287 -351.35643 1041.20287 -353.16016 1042.22949 C-410.82903 1074.75205 -478.84458 1086.72365 -544.42725 1086.39111 C-547.82127 1086.37402 -551.21458 1086.38423 -554.60858 1086.40144 C-609.99274 1086.63866 -665.6437 1077.04378 -717 1056 C-717.95568 1055.60861 -718.91136 1055.21722 -719.896 1054.81396 C-743.33607 1045.09734 -766.1209 1033.47272 -787 1019 C-787.35328 1018.75717 -787.35328 1018.75717 -789.14111 1017.52832 C-807.28385 1005.02633 -824.31462 991.43682 -840.44678 976.43555 C-842.08641 974.92014 -843.73904 973.41994 -845.39453 971.92188 C-850.55081 967.24202 -855.60744 962.59035 -860.07812 957.23438 C-862.16672 954.80617 -864.35163 952.49216 -866.55469 950.16821 C-872.98938 943.36193 -878.90905 936.31499 -884.57568 928.86133 C-886.06116 926.92008 -887.56938 924.99826 -889.08203 923.07812 C-905.53933 902.06524 -919.27961 879.41482 -932 856 C-932.44102 855.19321 -932.88204 854.38642 -933.33643 853.55518 C-971.31245 783.80245 -991.33584 704.46505 -1005 571 C-1005.05785 569.92299 -1005.11569 568.84598 -1005.17529 567.73633 C-1009.74143 479.23191 -1001.51632 389.01671 -884.0625 139.375 C-882.70938 137.9157 -881.35533 136.45725 -880 135 C-878.93286 133.77486 -877.87029 132.54572 -876.8125 131.3125 C-858.55662 110.45463 -838.274 91.5161 -816 75 C-815.34725 74.51064 -814.6945 74.02128 -814.02197 73.51709 C-744.21914 21.30724 -655.54501 -7.90055 -568.35547 -8.20312 C-566.98533 -8.21015 -565.61518 -8.21723 -564.24504 -8.22438 C-559.89252 -8.24378 -555.54006 -8.24881 -551.1875 -8.25 C-550.81705 -8.25022 -550.81705 -8.25022 -548.94233 -8.25134 C-527.15059 -8.25816 -505.62613 -8.04113 -484 -5 C-482.70304 -4.82839 -481.40608 -4.65679 -480.06982 -4.47998 C-440.60051 0.77192 -402.50438 11.03083 -366 27 C-365.55817 27.19328 -365.55817 27.19328 -363.32227 28.17139 C-331.28239 42.37858 -301.74502 62.45994 -275 85 C-274.47761 85.43748 -273.95521 85.87495 -273.41699 86.32568 C-260.37884 97.26177 -248.05573 108.86829 -236 120.875 C-235.21085 121.65948 -234.4217 122.44395 -233.60864 123.2522 C-228.86656 128.00739 -224.37968 132.91155 -220 138 C-218.54554 139.60768 -217.08779 141.2124 -215.625 142.8125 C-208.64948 150.55262 -202.21104 158.72848 -195.70703 166.86328 C-195.15584 167.55249 -194.60464 168.24169 -194.03674 168.95178 C-192.69106 170.63444 -191.34551 172.31721 -190 174 C-189.98018 172.72173 -189.96036 171.44347 -189.93994 170.12646 C-189.86242 165.26921 -189.77396 160.41219 -189.68262 155.55518 C-189.64492 153.4745 -189.60998 151.39377 -189.57812 149.31299 C-188.91636 106.56734 -183.9724 62.07715 -154 29 C-153.74871 28.72188 -153.74871 28.72188 -152.47705 27.31445 C-130.02467 2.88201 -100.31756 -9.41218 -67.33203 -10.93359 C-44.50347 -11.43806 -21.11657 -9.11815 0 0 Z M-526.4375 202.1875 C-526.9039 202.2922 -526.9039 202.2922 -529.26416 202.82202 C-560.6708 210.17992 -589.69545 224.01898 -615 244 C-615.88816 244.6948 -616.77633 245.38961 -617.69141 246.10547 C-627.40866 253.87078 -637.22319 262.22659 -645.19141 271.82422 C-646.62164 273.54482 -648.09795 275.22712 -649.58984 276.89453 C-702.50389 336.2472 -721.3423 417.65533 -727 495 C-727.09644 496.31106 -727.19288 497.62211 -727.29224 498.9729 C-728.22766 512.86458 -728.19976 526.77007 -728.1875 540.6875 C-728.1869 541.95312 -728.18629 543.21874 -728.18567 544.52271 C-728.16117 563.42534 -727.91857 582.17995 -726 601 C-725.93448 601.65025 -725.86896 602.3005 -725.80145 602.97046 C-719.63588 663.71156 -705.35101 726.66784 -669 777 C-668.27426 778.01836 -667.54852 779.03672 -666.80078 780.08594 C-653.06073 798.88292 -636.72464 817.08236 -618 831 C-617.68418 831.24049 -617.68418 831.24049 -616.08594 832.45752 C-605.23517 840.7032 -594.11496 847.7699 -582 854 C-581.28892 854.37576 -580.57784 854.75152 -579.84521 855.13867 C-524.12127 884.40167 -454.00169 888.59777 -394.26855 870.15674 C-346.29239 854.8991 -301.93304 826.1393 -271 786 C-270.55334 785.42975 -270.10668 784.8595 -269.64648 784.27197 C-246.96508 755.26034 -229.14653 722.10962 -218 687 C-217.71028 686.09621 -217.42057 685.19241 -217.12207 684.26123 C-208.93663 658.41507 -204.07292 631.90725 -201 605 C-200.88141 604.00146 -200.76281 603.00292 -200.64062 601.97412 C-196.60672 566.32332 -197.45447 528.66943 -201 493 C-201.06552 492.3343 -201.13104 491.6686 -201.19855 490.98273 C-208.84858 413.83874 -230.44922 333.42146 -285.33984 275.8125 C-287.43982 273.59227 -289.4235 271.34767 -291.375 269 C-301.45407 257.44299 -313.63333 247.96238 -326 239 C-326.60892 238.5556 -327.21784 238.11119 -327.84521 237.65332 C-356.90513 216.67859 -391.731 204.30235 -427 199 C-427.59289 198.91061 -427.59289 198.91061 -430.59326 198.45825 C-441.89568 196.88268 -453.12723 196.66003 -464.52686 196.68433 C-467.6003 196.68747 -470.67277 196.66397 -473.74609 196.63867 C-491.50005 196.58185 -509.09264 198.27742 -526.4375 202.1875 Z " transform="translate(3855,500)"/><path d="M0 0 C3.09273 0.01611 6.18416 0.00001 9.27686 -0.01904 C27.47052 -0.0391 45.53253 1.64088 63.21826 6.07861 C64.24548 6.33208 65.27271 6.58554 66.33105 6.84668 C93.50274 13.82698 118.34932 27.04237 139.59326 45.39111 C139.9832 45.72627 139.9832 45.72627 141.95654 47.42236 C144.54585 49.70195 147.0765 52.03165 149.59326 54.39111 C150.08697 54.85083 150.58068 55.31054 151.08936 55.78418 C186.40254 88.92882 207.78038 136.1885 225.59326 180.39111 C225.87045 181.07891 226.14764 181.7667 226.43323 182.47534 C233.9641 201.19373 241.22759 220.01581 248.47339 238.84595 C263.09024 276.83149 278.13752 314.62827 293.59204 352.28052 C299.83739 367.50262 306.00482 382.75565 312.15576 398.01611 C312.40108 398.62472 312.40108 398.62472 313.64255 401.70465 C315.5895 406.53507 317.53633 411.36553 319.48289 416.19611 C323.80123 426.91104 328.13194 437.62094 332.46826 448.32861 C332.6383 448.74854 332.6383 448.74854 333.49881 450.8736 C335.18733 455.04341 336.87607 459.21314 338.56494 463.38281 C341.71957 471.17166 344.87203 478.96138 348.02472 486.75101 C349.79748 491.13108 351.57038 495.51109 353.34326 499.89111 C354.0516 501.64111 354.75993 503.39111 355.46826 505.14111 C355.81889 506.00736 356.16951 506.87361 356.53076 507.76611 C391.59326 594.39111 426.65576 681.01611 461.71826 767.64111 C462.06888 768.50734 462.41949 769.37356 462.78073 770.26604 C463.48917 772.01629 464.1976 773.76655 464.90604 775.5168 C466.67529 779.88792 468.44457 784.25903 470.21387 788.63013 C473.42019 796.55146 476.62641 804.47284 479.83209 812.39444 C486.91429 829.8953 493.99851 847.39534 501.09326 864.89111 C508.54919 883.27755 515.99331 901.66876 523.43604 920.06055 C526.63452 927.96425 529.83367 935.86769 533.03278 943.77115 C534.80297 948.14446 536.57311 952.51779 538.34326 956.89111 C539.05159 958.64111 539.75993 960.39111 540.46826 962.14111 C564.5516 1021.64111 588.63493 1081.14111 612.71826 1140.64111 C613.06888 1141.50734 613.41949 1142.37356 613.78073 1143.26604 C614.48917 1145.01629 615.1976 1146.76655 615.90604 1148.5168 C617.67529 1152.88792 619.44457 1157.25903 621.21387 1161.63013 C624.42016 1169.5514 627.62637 1177.4727 630.832 1185.39424 C631.55245 1187.17452 632.27293 1188.95478 632.99344 1190.73503 C634.77807 1195.14451 636.56231 1199.55414 638.3457 1203.96411 C641.75495 1212.39255 645.17212 1220.8176 648.60889 1229.23486 C687.18689 1323.76296 687.18689 1323.76296 694.59326 1371.39111 C694.78533 1372.61186 694.9774 1373.8326 695.17529 1375.09033 C697.07069 1391.15045 696.95129 1408.75142 692.59326 1424.39111 C692.25295 1425.62088 691.91264 1426.85064 691.56201 1428.11768 C679.99108 1465.87958 651.01442 1497.98404 616.48389 1516.39502 C595.75242 1527.14373 573.98944 1531.77091 550.73828 1531.70679 C548.36004 1531.70364 545.98307 1531.72715 543.60498 1531.75244 C509.88178 1531.89209 479.88412 1519.61471 455.59326 1496.39111 C454.93197 1495.79299 454.27068 1495.19486 453.58936 1494.57861 C441.0415 1482.81658 432.66166 1467.36728 424.59326 1452.39111 C424.14467 1451.56789 423.69607 1450.74466 423.23389 1449.89648 C412.50254 1430.0001 404.11542 1408.92571 395.312 1388.13272 C392.87276 1382.37841 390.40732 1376.63784 387.87842 1370.92236 C379.47274 1351.91166 371.99909 1332.60863 364.64661 1313.17218 C362.79884 1308.29367 360.94164 1303.41876 359.08545 1298.54346 C355.47109 1289.04703 351.86324 1279.54814 348.25833 1270.04813 C344.26633 1259.52834 340.26951 1249.01039 336.27206 1238.49268 C334.3178 1233.3508 332.3637 1228.20886 330.40967 1223.06689 C330.02128 1222.04488 329.6329 1221.02286 329.23274 1219.96988 C326.68587 1213.26751 324.14 1206.56475 321.5947 1199.86179 C319.83174 1195.21922 318.06847 1190.57677 316.30518 1185.93433 C315.46208 1183.71433 314.61914 1181.49428 313.77637 1179.27417 C312.61026 1176.20232 311.44361 1173.13068 310.27686 1170.05908 C309.93195 1169.15007 309.58704 1168.24105 309.23167 1167.30449 C308.91199 1166.4632 308.59231 1165.62191 308.26294 1164.75513 C307.97128 1163.98583 307.67962 1163.21653 307.37912 1162.42392 C306.73676 1160.76229 306.05536 1159.1158 305.36304 1157.47437 C304.59326 1155.39111 304.59326 1155.39111 304.59326 1152.39111 C205.42826 1152.55611 205.42826 1152.55611 -296.40674 1153.39111 C-300.69674 1164.94111 -300.69674 1164.94111 -322.40674 1223.39111 C-327.13305 1236.09737 -331.85992 1248.8034 -336.58984 1261.5083 C-338.45922 1266.53099 -340.32566 1271.55476 -342.19189 1276.57861 C-345.15802 1284.56286 -348.12899 1292.54528 -351.10405 1300.5262 C-353.04342 1305.7293 -354.98017 1310.93335 -356.91357 1316.13867 C-414.29854 1470.59524 -414.29854 1470.59524 -444.40674 1500.39111 C-445.25236 1501.27799 -446.09799 1502.16486 -446.96924 1503.07861 C-447.37143 1503.46018 -447.37143 1503.46018 -449.40674 1505.39111 C-449.9301 1505.90932 -450.45346 1506.42752 -450.99268 1506.96143 C-469.46328 1524.34094 -497.90819 1531.44691 -522.68408 1531.59424 C-523.4537 1531.59994 -524.22331 1531.60564 -525.01625 1531.61151 C-526.63899 1531.6209 -528.26176 1531.62747 -529.88452 1531.63135 C-532.307 1531.64097 -534.7286 1531.67201 -537.15088 1531.70361 C-576.24362 1531.96968 -610.21568 1514.86335 -637.99731 1488.1521 C-663.33844 1463.14381 -678.38882 1431.3966 -678.71924 1395.51611 C-678.50129 1342.43621 -654.92509 1291.24731 -635.396 1242.83057 C-630.08591 1229.65484 -624.90687 1216.42793 -619.71924 1203.20361 C-613.13569 1186.42457 -606.54254 1169.64957 -599.90674 1152.89111 C-593.37838 1136.40222 -586.88698 1119.89898 -580.40674 1103.39111 C-573.9265 1086.88325 -567.43484 1070.38011 -560.90674 1053.89111 C-553.85526 1036.07991 -546.84633 1018.25215 -539.8457 1000.4209 C-533.92458 985.33955 -527.99391 970.2621 -522.03845 955.19427 C-516.18106 940.37262 -510.35592 925.53835 -504.53174 910.70361 C-497.67525 893.23972 -490.80236 875.78254 -483.89606 858.33829 C-477.70557 842.69996 -471.55255 827.04705 -465.40674 811.39111 C-458.9265 794.88325 -452.43484 778.38011 -445.90674 761.89111 C-438.85526 744.07991 -431.84633 726.25215 -424.8457 708.4209 C-418.92458 693.33955 -412.99391 678.2621 -407.03845 663.19427 C-401.18106 648.37262 -395.35592 633.53835 -389.53174 618.70361 C-382.67525 601.23972 -375.80236 583.78254 -368.89606 566.33829 C-362.70557 550.69996 -356.55255 535.04705 -350.40674 519.39111 C-343.59189 502.03086 -336.76073 484.67731 -329.89551 467.33691 C-323.70521 451.69904 -317.55237 436.04659 -311.40674 420.39111 C-304.9265 403.88325 -298.43462 387.3802 -291.90674 370.89111 C-281.68877 345.07795 -271.54795 319.23451 -261.40674 293.39111 C-260.96743 292.27168 -260.52812 291.15225 -260.0755 289.9989 C-257.10189 282.42157 -254.129 274.84397 -251.15674 267.26611 C-250.74683 266.22109 -250.33691 265.17606 -249.91458 264.09937 C-245.094 251.80876 -240.28156 239.51503 -235.47977 227.21707 C-231.80276 217.80133 -228.11564 208.38959 -224.42236 198.98022 C-223.43407 196.4608 -222.44758 193.94067 -221.46143 191.42041 C-214.03121 172.4488 -206.27106 153.75053 -197.40674 135.39111 C-196.94703 134.42931 -196.48731 133.46751 -196.01367 132.47656 C-170.41591 79.09265 -132.52135 31.52911 -75.02002 11.20752 C-69.09092 9.22766 -63.09817 7.58086 -57.03174 6.07861 C-56.11385 5.84819 -55.19595 5.61777 -54.25024 5.38037 C-36.37193 1.23317 -18.30553 -0.1128 0 0 Z M-0.40674 319.39111 C-0.59227 319.91901 -0.77781 320.44692 -0.96896 320.99081 C-11.51717 350.99723 -22.17969 380.95969 -32.97694 410.87733 C-37.28324 422.81326 -41.56428 434.75822 -45.84424 446.70361 C-46.63973 448.9235 -47.43522 451.14339 -48.23071 453.36328 C-49.82582 457.81473 -51.42076 462.26624 -53.01562 466.71777 C-56.58242 476.6729 -60.15142 486.62724 -63.72025 496.58163 C-65.69917 502.10143 -67.67795 507.62127 -69.65674 513.14111 C-70.4484 515.34945 -71.24007 517.55778 -72.03174 519.76611 C-72.42361 520.85924 -72.81549 521.95236 -73.21924 523.07861 C-76.78174 533.01611 -76.78174 533.01611 -77.9693 536.32878 C-78.76076 538.53655 -79.55223 540.74433 -80.34369 542.9521 C-82.32592 548.48151 -84.30819 554.01091 -86.29053 559.54028 C-89.81649 569.3754 -93.34223 579.2106 -96.86658 589.0463 C-106.11239 614.8493 -115.37142 640.64752 -124.64365 666.44105 C-133.80874 691.93672 -142.95718 717.43833 -152.09619 742.94336 C-155.63477 752.81848 -159.17507 762.69298 -162.71521 772.56754 C-164.69579 778.09204 -166.67626 783.61658 -168.65674 789.14111 C-169.4484 791.34945 -170.24007 793.55778 -171.03174 795.76611 C-171.22768 796.31268 -171.22768 796.31268 -172.21924 799.07861 C-173.40674 802.39111 -174.59424 805.70361 -175.78174 809.01611 C-176.17355 810.10906 -176.56536 811.202 -176.96904 812.32806 C-177.76136 814.53823 -178.55369 816.74839 -179.34602 818.95856 C-181.31515 824.45135 -183.28423 829.94416 -185.25317 835.43701 C-188.93514 845.70854 -192.61767 855.97986 -196.30215 866.25049 C-198.02669 871.05778 -199.7509 875.86519 -201.4751 880.67261 C-202.29053 882.94594 -203.10612 885.21922 -203.92188 887.49243 C-206.09674 893.55305 -208.26892 899.61461 -210.4361 905.67798 C-211.07682 907.46892 -211.71868 909.25946 -212.36176 911.04956 C-213.22731 913.45926 -214.08902 915.8703 -214.94971 918.28174 C-215.20263 918.98297 -215.45555 919.6842 -215.71614 920.40668 C-217.40674 925.16277 -217.40674 925.16277 -217.40674 927.39111 C-72.20674 927.39111 72.99326 927.39111 222.59326 927.39111 C220.34345 917.26698 220.34345 917.26698 219.07886 913.87109 C218.79192 913.09149 218.50498 912.31189 218.20935 911.50867 C217.89905 910.68355 217.58875 909.85843 217.26904 909.0083 C216.93546 908.10632 216.60187 907.20434 216.25818 906.27502 C215.53041 904.3091 214.80002 902.34415 214.06729 900.38007 C212.45294 896.05213 210.85185 891.71933 209.24968 887.38687 C208.38511 885.04937 207.51987 882.71212 206.65401 880.37509 C201.76771 867.18193 196.94713 853.96491 192.12811 840.74708 C190.91172 837.41126 189.6945 834.07575 188.47729 830.74023 C186.74838 826.00236 185.01961 821.26443 183.29112 816.5264 C180.13653 807.8793 176.9805 799.23273 173.82373 790.58643 C173.58713 789.93837 173.35052 789.29031 173.10674 788.62262 C171.91309 785.35324 170.71941 782.08388 169.52573 778.81451 C167.37113 772.91331 165.21674 767.01202 163.06233 761.11074 C161.86431 757.8292 160.66629 754.54766 159.46826 751.26611 C158.98909 749.95361 158.50993 748.64111 158.03076 747.32861 C157.79357 746.67893 157.55639 746.02924 157.31201 745.35986 C156.35368 742.73486 155.39534 740.10986 154.43701 737.48485 C153.95785 736.17239 153.4787 734.85992 152.99955 733.54746 C151.80143 730.26567 150.60332 726.98389 149.40521 723.7021 C147.2513 717.80224 145.09738 711.90237 142.94343 706.00252 C141.74858 702.72971 140.55373 699.4569 139.35889 696.18408 C139.12219 695.53573 138.88548 694.88738 138.64161 694.21938 C134.74974 683.55911 130.85816 672.89873 126.96669 662.23831 C124.29182 654.91074 121.61683 647.58322 118.94141 640.25586 C118.70419 639.60619 118.46698 638.95652 118.22258 638.28716 C117.2747 635.69112 116.32681 633.09508 115.37889 630.49905 C112.53882 622.72095 109.69967 614.9425 106.86179 607.16359 C104.89794 601.78086 102.93333 596.3984 100.96826 591.01611 C100.58567 589.96818 100.20308 588.92024 99.8089 587.84055 C94.08491 572.1666 88.32095 556.50765 82.54254 540.8537 C82.32404 540.26175 82.32404 540.26175 81.21826 537.26611 C80.78141 536.08269 80.34456 534.89927 79.89447 533.67999 C72.78008 514.39994 65.76039 495.0869 58.78131 475.75751 C51.8637 456.60274 44.85496 437.48319 37.79587 418.38016 C29.94414 397.12666 22.20703 375.83316 14.51904 354.52002 C10.28325 342.78226 6.02401 331.05687 1.59326 319.39111 C0.93326 319.39111 0.27326 319.39111 -0.40674 319.39111 Z " transform="translate(813.40673828125,79.60888671875)"/><path d="M0 0 C1.57795 -0.00702 3.1559 -0.01411 4.73386 -0.02126 C9.74705 -0.04065 14.76021 -0.04569 19.77344 -0.04688 C20.20004 -0.0471 20.20004 -0.0471 22.35892 -0.04821 C46.68416 -0.05482 70.91042 -0.03742 95.08911 2.94989 C97.25829 3.21663 99.42874 3.47053 101.59961 3.72314 C172.77937 12.11209 244.07327 32.93917 305.14844 71.20312 C305.98746 71.72197 306.82647 72.24082 307.69092 72.77539 C325.64391 83.89144 342.70481 95.96387 359.14844 109.20312 C359.63635 109.59371 359.63635 109.59371 362.10547 111.57031 C367.40269 115.85254 372.53898 120.27119 377.56641 124.86719 C378.96677 126.13408 380.37314 127.39496 381.80933 128.62109 C387.63874 133.61108 393.08941 138.95796 398.51147 144.38086 C400.07452 145.94173 401.64541 147.4944 403.2168 149.04688 C408.9056 154.70437 414.20188 160.49548 419.21118 166.77783 C421.25136 169.33198 423.3784 171.78444 425.54468 174.23096 C443.59118 194.68908 458.08214 218.34498 471.14844 242.20312 C471.64199 243.1037 472.13554 244.00427 472.64404 244.93213 C518.67268 329.5751 548.51314 442.31952 520.46484 537.52344 C511.91996 565.23398 495.17857 587.515 469.52344 601.57812 C439.04104 617.68346 404.38934 624.46544 370.46094 628.45312 C370.1084 628.49467 370.1084 628.49467 368.32434 628.7049 C363.60374 629.2537 358.88288 629.78798 354.14844 630.20312 C353.19808 630.28685 352.24773 630.37058 351.26857 630.45684 C339.34013 631.37808 327.43564 631.3397 315.47743 631.32338 C313.0886 631.32382 310.69977 631.32469 308.31094 631.32597 C303.138 631.32773 297.96506 631.32642 292.79212 631.32233 C285.10028 631.31627 277.40846 631.316 269.71662 631.31687 C256.77429 631.31818 243.83196 631.31486 230.88964 631.30886 C218.08257 631.30293 205.27551 631.29909 192.46844 631.298 C191.67094 631.29793 190.87343 631.29786 190.05176 631.29779 C186.00133 631.29746 181.9509 631.29715 177.90047 631.29687 C149.24134 631.29477 120.58222 631.28804 91.9231 631.27856 C64.08813 631.26937 36.25317 631.26229 8.41821 631.25806 C7.55961 631.25793 6.70101 631.25779 5.81638 631.25766 C-2.80638 631.25634 -11.42914 631.25506 -20.05191 631.25382 C-37.61611 631.25128 -55.18032 631.24846 -72.74452 631.24547 C-73.55202 631.24533 -74.35953 631.24519 -75.1915 631.24505 C-129.07819 631.23586 -182.96488 631.21999 -236.85156 631.20312 C-236.46252 636.91256 -236.06822 642.6216 -235.66939 648.33035 C-235.53488 650.26568 -235.40173 652.2011 -235.27003 654.13663 C-232.30038 697.7259 -223.68483 740.12898 -205.85156 780.20312 C-205.49095 781.01926 -205.13033 781.8354 -204.75879 782.67627 C-187.10516 822.25815 -159.79027 861.14738 -124.53125 886.97217 C-122.85449 888.20098 -121.19669 889.45257 -119.53906 890.70703 C-60.87648 934.48597 13.76287 945.34189 84.8418 935.69189 C101.59438 933.21562 118.03045 929.38576 134.14844 924.20312 C135.00937 923.92662 135.8703 923.65012 136.75732 923.36523 C186.38164 907.08412 230.19153 875.34891 269.49658 841.6167 C271.18591 840.17106 272.88312 838.73515 274.58203 837.30078 C281.31883 831.59549 287.87978 825.74121 294.32227 819.70532 C297.20246 817.00697 300.09238 814.33892 303.08594 811.76562 C307.68753 807.79737 312.08694 803.61202 316.51929 799.45728 C320.03082 796.16911 323.55993 792.90758 327.14844 789.70312 C331.32775 785.96813 335.42997 782.15649 339.52344 778.32812 C339.84599 778.02802 339.84599 778.02802 341.47827 776.50928 C344.44336 773.74833 347.39202 770.977 350.28516 768.14062 C369.97748 749.05361 395.38554 743.57354 422.19141 743.98828 C449.40779 744.86553 474.82295 753.60572 493.98828 773.64062 C501.74322 782.83997 506.86037 792.61107 510.14844 804.20312 C510.46684 805.26918 510.78523 806.33523 511.11328 807.43359 C515.83198 826.33012 514.58804 847.60844 509.14844 866.20312 C508.93945 866.93612 508.73046 867.66911 508.51514 868.42432 C493.60631 919.56103 456.9161 969.94445 414.73047 1002.15625 C412.3757 1004.02296 410.16656 1005.97096 407.9375 1007.98438 C403.37404 1012.06482 398.62055 1015.80039 393.71094 1019.45312 C392.84767 1020.09717 391.9844 1020.74122 391.09497 1021.40479 C312.31211 1079.70223 214.80338 1111.36003 44.50082 1123.58965 C41.7832 1123.5779 39.0656 1123.57141 36.34796 1123.56604 C10.90871 1123.50737 -14.43735 1123.20245 -39.7511 1120.43097 C-41.88882 1120.19908 -44.02756 1119.9806 -46.16699 1119.76514 C-76.37885 1116.69315 -106.345 1111.36764 -135.85156 1104.20312 C-136.87492 1103.95514 -137.89827 1103.70716 -138.95264 1103.45166 C-184.23602 1092.28324 -228.30594 1075.24802 -268.85156 1052.20312 C-269.22555 1051.9926 -269.22555 1051.9926 -271.11816 1050.92725 C-293.99855 1038.00956 -316.09057 1022.96439 -335.93359 1005.71875 C-338.75174 1003.28919 -341.63069 1000.96084 -344.53906 998.64062 C-349.16698 994.88044 -353.34386 990.81356 -357.50781 986.55078 C-360.21964 983.83444 -363.07531 981.34391 -365.98438 978.84375 C-370.99153 974.44416 -375.44582 969.59487 -379.78516 964.54688 C-381.83158 962.22579 -383.93949 959.97058 -386.06128 957.71851 C-392.23784 951.14055 -397.88284 944.29079 -403.36377 937.12793 C-404.94183 935.08634 -406.54793 933.06939 -408.16016 931.05469 C-441.36435 889.37771 -465.8676 841.18765 -483.85156 791.20312 C-484.03517 790.69298 -484.03517 790.69298 -484.96436 788.11133 C-513.64468 707.4454 -522.45132 619.26041 -457.07031 269.79688 C-440.54299 235.59009 -419.34026 203.245 -394.85156 174.20312 C-394.62751 173.93661 -394.62751 173.93661 -393.49365 172.58789 C-383.64174 160.89229 -373.38887 149.66809 -362.60156 138.82812 C-361.9522 138.17409 -361.30283 137.52005 -360.63379 136.84619 C-356.20277 132.4298 -351.59123 128.28403 -346.85156 124.20312 C-345.80354 123.27734 -344.75659 122.35034 -343.71094 121.42188 C-271.53979 58.00155 -178.0059 21.48289 -41.64453 1.96484 C-41.31804 1.93322 -41.31804 1.93322 -39.66582 1.77316 C-26.44124 0.55593 -13.27246 0.03669 0 0 Z M-140.85156 248.20312 C-141.12694 248.44692 -141.12694 248.44692 -142.52051 249.68066 C-196.1585 297.46611 -220.52532 367.71662 -232.16406 436.82812 C-232.28735 437.55296 -232.41064 438.2778 -232.53766 439.0246 C-234.51046 450.73706 -235.6661 462.34851 -236.85156 474.20312 C-72.18156 474.20312 92.48844 474.20312 262.14844 474.20312 C259.81073 443.81297 259.81073 443.81297 258.39844 434.45312 C258.31384 433.88235 258.31384 433.88235 257.88574 430.9939 C249.86084 378.57189 234.85298 326.43761 203.14844 283.20312 C202.71451 282.6108 202.28058 282.01848 201.8335 281.4082 C196.4529 274.14773 190.62076 267.37572 184.46094 260.76562 C183.8554 260.11529 183.24986 259.46496 182.62598 258.79492 C178.36845 254.30433 173.87024 250.19931 169.14844 246.20312 C168.86271 245.95897 168.86271 245.95897 167.41675 244.72339 C152.74402 232.30833 136.62496 222.1828 119.14844 214.20312 C118.43816 213.87361 117.72789 213.54409 116.99609 213.20459 C97.00126 204.01979 75.90668 198.30712 54.14844 195.20312 C52.9567 195.0258 51.76496 194.84847 50.53711 194.66577 C39.23849 193.09341 28.01756 192.86317 16.62158 192.88745 C13.54814 192.8906 10.47567 192.86709 7.40234 192.8418 C-47.70754 192.66514 -99.63198 211.64898 -140.85156 248.20312 Z " transform="translate(2176.8515625,487.796875)"/><path d="M0 0 C1.71975 -0.00702 3.43949 -0.01411 5.15924 -0.02126 C10.6296 -0.04067 16.09992 -0.04569 21.57031 -0.04688 C22.03602 -0.0471 22.03602 -0.0471 24.39278 -0.04821 C51.45136 -0.05495 78.401 0.05063 105.33453 2.94989 C107.81515 3.21598 110.29683 3.47008 112.77881 3.72314 C204.96899 13.24839 301.15405 38.58293 383.69531 101.20312 C384.16002 101.57115 384.16002 101.57115 386.51172 103.43359 C403.33059 116.9509 419.55385 132.0592 432.39648 149.45557 C433.72862 151.24794 435.09173 153.01317 436.46094 154.77734 C461.72845 187.72558 477.33568 229.7432 471.92603 271.54272 C468.81549 292.07397 461.22962 309.37486 447.69531 325.20312 C447.25187 325.79094 446.80844 326.37875 446.35156 326.98438 C430.26121 347.7841 401.594 357.96967 376.46753 361.42773 C342.67224 365.23635 308.07299 362.05391 280.19531 340.95312 C278.68535 339.71518 277.18643 338.46371 275.69531 337.20312 C274.68469 336.37555 273.67406 335.54797 272.63281 334.69531 C265.68223 328.93589 259.14385 322.83219 252.75781 316.45312 C252.06043 315.75655 251.36305 315.05997 250.64453 314.34229 C246.70292 310.3582 242.93623 306.26694 239.27417 302.0249 C237.1728 299.60022 234.99741 297.24731 232.82031 294.89062 C227.8994 289.48872 223.27565 283.89429 218.69531 278.20312 C215.96826 274.84073 213.23618 271.48242 210.50391 268.12427 C208.04094 265.09579 205.58106 262.06543 203.14453 259.01562 C199.14761 254.04536 195.04283 249.40633 190.46094 244.96875 C188.69531 243.20312 188.69531 243.20312 186.19531 240.14062 C183.00885 236.39653 179.45084 233.36204 175.69531 230.20312 C174.84195 229.46191 173.98859 228.7207 173.10938 227.95703 C134.21789 194.65952 88.05369 178.21175 36.87109 178 C35.76719 177.9943 34.66328 177.9886 33.52592 177.98273 C31.19722 177.97333 28.86851 177.96677 26.53979 177.96289 C23.06209 177.95328 19.58499 177.92223 16.10742 177.89062 C-35.28682 177.64683 -88.66852 191.19636 -126.68408 227.5708 C-143.48132 244.4895 -151.61719 266.08772 -151.61719 289.75464 C-151.27277 312.60571 -141.72746 334.20077 -125.30469 350.20312 C-120.83841 354.12893 -116.10019 357.69276 -111.30469 361.20312 C-110.74459 361.61675 -110.18449 362.03038 -109.60742 362.45654 C-46.60509 408.37569 42.65825 421.05553 116.84375 439.46484 C194.66448 458.77882 194.66448 458.77882 221.69531 467.20312 C222.59399 467.48247 223.49267 467.76181 224.41858 468.04962 C303.62042 492.72782 382.47912 524.62052 451.13281 586.95312 C451.78323 587.55496 452.43364 588.15679 453.10376 588.77686 C457.60916 593.01077 461.67926 597.5073 465.69531 602.20312 C466.65547 603.287 467.6176 604.36914 468.58203 605.44922 C507.80853 649.89531 526.205 705.06818 526.00781 763.89062 C526.0069 764.45346 526.0069 764.45346 526.00229 767.30176 C525.8637 818.1946 516.89873 869.0696 494.69531 915.20312 C494.37208 915.87988 494.04885 916.55664 493.71582 917.25391 C491.46038 921.94881 489.11105 926.58884 486.69531 931.20312 C486.36483 931.83896 486.03435 932.47479 485.69385 933.12988 C477.20291 949.3074 466.59441 964.35539 454.69531 978.20312 C453.82149 979.25924 452.94919 980.31661 452.07812 981.375 C441.61305 993.97972 430.19096 1006.07873 417.26562 1016.1875 C414.51968 1018.34086 411.89883 1020.61008 409.25781 1022.89062 C393.62782 1035.87214 376.38681 1046.30287 358.69531 1056.20312 C357.94218 1056.62932 357.18904 1057.05552 356.41309 1057.49463 C303.37173 1087.3695 242.43148 1102.76243 182.69531 1112.20312 C181.52436 1112.39213 180.35341 1112.58114 179.14697 1112.77588 C162.87429 1115.36222 146.53964 1116.95617 130.13281 1118.39062 C129.1663 1118.47548 128.19978 1118.56034 127.20398 1118.64777 C124.36688 1118.8942 121.52931 1119.13405 118.69141 1119.37109 C117.88052 1119.44071 117.06963 1119.51032 116.23418 1119.58205 C100.16245 1120.8894 84.08829 1121.3709 67.96875 1121.40625 C67.5187 1121.40766 67.5187 1121.40766 65.24117 1121.41482 C60.45944 1121.42966 55.67774 1121.43898 50.896 1121.44336 C47.0515 1121.4477 43.20723 1121.46144 39.36279 1121.48438 C18.56324 1121.60576 -2.11965 1121.35092 -22.87109 1119.82812 C-23.71236 1119.76644 -24.55362 1119.70476 -25.42038 1119.64121 C-113.31191 1113.0386 -200.05802 1090.50874 -329.30469 1006.20312 C-330.11422 1005.50445 -330.92375 1004.80578 -331.75781 1004.08594 C-343.51508 993.76913 -354.81455 982.65365 -364.30469 970.20312 C-365.23293 969.01551 -366.16133 967.82802 -367.08984 966.64062 C-374.8647 956.59055 -381.74024 946.07586 -388.30469 935.20312 C-388.71316 934.53346 -389.12163 933.86379 -389.54248 933.17383 C-407.60427 903.33591 -419.22742 868.19084 -420.30469 833.20312 C-420.34465 832.10613 -420.38461 831.00914 -420.42578 829.87891 C-421.0199 798.67029 -410.36167 771.00571 -388.81982 748.3811 C-366.92578 725.98191 -338.84417 715.68963 -307.77319 714.91992 C-281.91918 714.63474 -255.89576 719.42165 -236.65234 737.88281 C-235.87762 738.64852 -235.10289 739.41422 -234.30469 740.20312 C-233.51965 740.92758 -232.73461 741.65203 -231.92578 742.39844 C-215.85744 757.61564 -204.34283 777.13002 -193.36719 796.14062 C-173.45859 830.60791 -148.22794 864.88474 -116.30469 889.20312 C-115.73637 889.63722 -115.16806 890.07131 -114.58252 890.51855 C-106.13208 896.94008 -97.51837 902.91106 -88.30469 908.20312 C-87.99451 908.38214 -87.99451 908.38214 -86.4248 909.28809 C-21.52382 946.3514 71.15287 951.65737 142.69531 933.20312 C164.05067 927.35857 185.95417 918.6811 203.69531 905.20312 C204.77582 904.40465 205.85656 903.60649 206.9375 902.80859 C229.5792 885.90667 250.06419 864.17537 254.97266 835.33105 C259.33356 804.87838 251.94725 770.89155 233.94727 745.85254 C230.23095 740.95639 226.03642 736.54423 221.69531 732.20312 C220.96699 731.4748 220.23867 730.74648 219.48828 729.99609 C192.75817 704.85293 152.80101 692.39296 118.68048 680.87439 C116.83758 680.25123 114.99659 679.62243 113.15576 678.99316 C82.04645 668.40452 50.0895 660.52665 18.24154 652.52088 C-71.51659 629.95779 -163.86415 605.37594 -309.30469 520.20312 C-309.83481 519.77209 -310.36494 519.34106 -310.91113 518.89697 C-330.0482 503.24739 -347.46021 485.98832 -362.30469 466.20312 C-362.72847 465.64689 -363.15225 465.09066 -363.58887 464.51758 C-370.8467 454.95575 -376.76583 444.84239 -382.30469 434.20312 C-382.65773 433.53507 -383.01077 432.86701 -383.37451 432.17871 C-413.77664 373.99407 -415.01135 300.38572 -396.36572 238.5249 C-381.57895 192.23204 -355.73264 152.18516 -322.30469 117.20312 C-321.47582 116.33172 -320.64695 115.46031 -319.79297 114.5625 C-315.21235 109.85853 -310.35631 105.66561 -305.22656 101.57031 C-302.72012 99.53969 -300.28968 97.44585 -297.86768 95.31616 C-289.24221 87.79414 -279.85439 81.48427 -270.30469 75.20312 C-269.54946 74.70168 -268.79423 74.20023 -268.01611 73.68359 C-192.15101 23.51501 -97.60933 0.6936 0 0 Z " transform="translate(5126.3046875,489.796875)"/><path d="M0 0 C0.80824 0.22043 1.61648 0.44086 2.44922 0.66797 C21.17302 5.95765 38.23619 14.25285 53 27 C53.53818 27.45601 54.07637 27.91201 54.63086 28.38184 C81.9797 51.73897 96.74074 84.73844 101.75 119.9375 C101.86577 120.74558 101.98155 121.55366 102.10083 122.38623 C104.59044 141.89793 104.14612 161.69459 104.12847 181.32394 C104.1259 185.42403 104.1292 189.52412 104.13171 193.62422 C104.1353 200.7927 104.13522 207.96117 104.13266 215.12965 C104.12887 225.78996 104.13082 236.45027 104.13387 247.11058 C104.13913 266.15557 104.13869 285.20055 104.13579 304.24553 C104.13327 320.91433 104.13262 337.58313 104.13382 354.25193 C104.13385 354.8055 104.13385 354.8055 104.13405 357.60689 C104.13436 362.10154 104.13468 366.59618 104.13501 371.09083 C104.13806 413.22835 104.1353 455.36587 104.12991 497.50339 C104.12517 534.90631 104.12559 572.30923 104.13037 609.71216 C104.13573 651.76975 104.13785 693.82735 104.13476 735.88494 C104.13444 740.37217 104.13413 744.8594 104.13382 749.34662 C104.13374 750.45143 104.13366 751.55624 104.13358 752.69452 C104.13244 769.34714 104.13377 785.99976 104.1363 802.65238 C104.13916 821.59756 104.13843 840.54273 104.13301 859.4879 C104.13009 870.07887 104.12987 880.66982 104.13366 891.26078 C104.13591 898.34907 104.13449 905.43735 104.13016 912.52563 C104.12779 916.55492 104.12693 920.5842 104.13056 924.61349 C104.16882 970.44208 104.16882 970.44208 101.75 987.5625 C101.62142 988.4961 101.49283 989.42971 101.36035 990.3916 C97.045 1020.08085 87.79029 1048.91637 68 1072 C67.56575 1072.51111 67.13149 1073.02223 66.68408 1073.54883 C44.95785 1098.91859 15.02125 1113.85482 -18 1118 C-20.66231 1118.11202 -23.29875 1118.18692 -25.96094 1118.20312 C-26.70977 1118.20883 -27.45861 1118.21453 -28.23013 1118.2204 C-29.81177 1118.2298 -31.39343 1118.23636 -32.9751 1118.24023 C-35.33403 1118.24983 -37.69205 1118.28086 -40.05078 1118.3125 C-73.71741 1118.54761 -103.77645 1106.2054 -128 1083 C-128.68449 1082.36707 -129.36898 1081.73414 -130.07422 1081.08203 C-159.82059 1052.73824 -171.93843 1007.69461 -173.09378 967.75822 C-173.13014 964.09072 -173.13644 960.42436 -173.13143 956.75668 C-173.13308 955.33622 -173.13517 953.91577 -173.13765 952.49531 C-173.14318 948.60246 -173.14255 944.70962 -173.14087 940.81677 C-173.14014 936.57734 -173.14517 932.33792 -173.14945 928.0985 C-173.15701 919.69464 -173.15922 911.29077 -173.15977 902.8869 C-173.16069 892.81837 -173.16736 882.74983 -173.17412 872.6813 C-173.19017 848.34622 -173.19608 824.01114 -173.20087 799.67606 C-173.20321 788.15828 -173.20681 776.64051 -173.21057 765.12273 C-173.2234 725.67782 -173.23412 686.2329 -173.23757 646.78799 C-173.23779 644.31254 -173.23801 641.8371 -173.23823 639.36165 C-173.23845 636.8803 -173.23867 634.39895 -173.23889 631.9176 C-173.23934 626.93978 -173.23978 621.96196 -173.24023 616.98413 C-173.24034 615.74992 -173.24045 614.51571 -173.24057 613.24411 C-173.24419 573.24284 -173.26011 533.2416 -173.28342 493.24034 C-173.30804 450.92566 -173.32174 408.61098 -173.32294 366.29628 C-173.32311 361.64737 -173.32332 356.99846 -173.32357 352.34955 C-173.32363 351.2049 -173.32368 350.06025 -173.32374 348.88091 C-173.32489 330.49175 -173.3359 312.10262 -173.35046 293.71346 C-173.36485 275.21412 -173.36804 256.71481 -173.36002 238.21546 C-173.35558 227.23856 -173.35936 216.26174 -173.37526 205.28485 C-173.38506 197.93516 -173.38378 190.58552 -173.37382 183.23583 C-173.36847 179.0595 -173.36759 174.88332 -173.38033 170.707 C-173.52688 119.38973 -166.49692 70.18319 -129.875 31.5 C-113.73815 15.89177 -93.65794 5.47785 -72 0 C-71.33903 -0.17644 -70.67807 -0.35288 -69.99707 -0.53467 C-49.00243 -5.90304 -20.87779 -5.79291 0 0 Z " transform="translate(4377,493)"/><path d="M0 0 C5.30666 4.23476 10.37233 8.72 15.3125 13.375 C15.99957 13.99762 16.68664 14.62023 17.39453 15.26172 C41.89089 38.30859 49.15701 73.13038 50.3125 105.375 C50.6877 140.68973 41.46981 175.47096 16.66772 201.48364 C8.87533 209.41387 0.61828 216.29926 -8.6875 222.375 C-9.78063 223.09043 -10.87375 223.80586 -12 224.54297 C-31.08151 236.17639 -54.43804 243.44534 -76.83203 243.57812 C-77.60069 243.58383 -78.36935 243.58953 -79.1613 243.5954 C-80.78582 243.6048 -82.41037 243.61136 -84.03491 243.61523 C-86.45528 243.62482 -88.87476 243.65584 -91.29492 243.6875 C-130.33861 243.95385 -165.87123 228.41645 -193.6875 201.375 C-194.46867 200.61961 -195.24984 199.86422 -196.05469 199.08594 C-221.48178 172.75397 -227.41151 135.6977 -226.9375 100.62109 C-226.71411 91.97043 -225.7559 83.77074 -223.6875 75.375 C-223.52121 74.67697 -223.35492 73.97895 -223.18359 73.25977 C-217.83633 51.45482 -207.17121 33.50929 -191.6875 17.375 C-190.86895 16.49328 -190.05039 15.61156 -189.20703 14.70312 C-140.81882 -35.9008 -55.96348 -41.12631 0 0 Z " transform="translate(4430.6875,119.625)"/></g>
</svg>
